<?xml version="1.0" encoding="utf-8"?>
<!-- Generator: Adobe Illustrator 24.1.1, SVG Export Plug-In . SVG Version: 6.00 Build 0)  -->
<svg version="1.1" id="Layer_1" xmlns="http://www.w3.org/2000/svg" xmlns:xlink="http://www.w3.org/1999/xlink" x="0px" y="0px"
	 viewBox="0 0 124.55 38.21" style="enable-background:new 0 0 124.55 38.21;" xml:space="preserve">
<style type="text/css">
	.st0{opacity:0.5;fill:#FFFFFF;}
	.st1{font-family:'Montserrat-Regular';}
	.st2{font-size:8.8285px;}
	.st3{letter-spacing:3;}
	.st4{opacity:0.5;}
	.st5{fill:#FFFFFF;}
	.st6{opacity:0.2;fill:url(#SVGID_1_);}
</style>
<g>
	<text id="XMLID_4_" transform="matrix(1 0 0 1 16.0903 7.5039)" class="st0 st1 st2 st3">POWERED BY</text>
	<g class="st4">
		<g>
			<path class="st5" d="M22.76,29.67L22.76,29.67L22.76,29.67c-0.1-0.12-0.2-0.24-0.31-0.35l-6.48-7.37v0
				c-0.94-1.19-2.4-1.95-4.03-1.95c-1.63,0-3.09,0.76-4.03,1.95l0,0l-6.67,7.57l0,0c-0.83,0.96-1.31,2.23-1.24,3.61
				c0.13,2.64,2.29,4.78,4.93,4.88c2.4,0.09,4.45-1.46,5.11-3.63c0.02-0.06,0.03-0.12,0.03-0.18c0.03-0.15,0.05-0.3,0.05-0.46
				c0-0.92-0.58-1.7-1.39-2c-0.01-0.01-0.02-0.02-0.04-0.03c-0.84-0.33-1.44-1.12-1.5-2.03c-0.09-1.37,1-2.52,2.35-2.52
				c0.07,0,0.15,0,0.22,0.01c0.37-0.81,1.19-1.37,2.14-1.37c0.95,0,1.77,0.56,2.14,1.37c0.07-0.01,0.14-0.01,0.22-0.01
				c1.3,0,2.36,1.06,2.36,2.36c0,1-0.63,1.86-1.51,2.2c-0.81,0.3-1.39,1.09-1.39,2c0,0.13,0.01,0.26,0.04,0.39
				c0,0.03,0,0.07,0.01,0.12c0.61,2.24,2.7,3.88,5.16,3.78c2.61-0.1,4.75-2.18,4.92-4.79C23.96,31.88,23.53,30.64,22.76,29.67z"/>
			<linearGradient id="SVGID_1_" gradientUnits="userSpaceOnUse" x1="6.0542" y1="30.3474" x2="16.9578" y2="30.3474">
				<stop  offset="0" style="stop-color:#1F2532"/>
				<stop  offset="1" style="stop-color:#FFFFFF"/>
			</linearGradient>
			<path class="st6" d="M16.53,28.81c-0.18,1.13-1.15,1.99-2.33,1.99c-0.41,0-0.8-0.11-1.14-0.29c-0.34,0.19-0.73,0.29-1.14,0.29
				c-0.45,0-0.86-0.12-1.22-0.34c-0.36,0.22-0.77,0.34-1.22,0.34c-1.05,0-1.95-0.69-2.25-1.64C7.21,29.28,7.2,29.4,7.2,29.53
				c0,1.3,1.06,2.36,2.36,2.36c0.43,0,0.83-0.12,1.18-0.32c0.35,0.2,0.75,0.32,1.18,0.32c0.43,0,0.83-0.12,1.18-0.32
				c0.35,0.2,0.75,0.32,1.18,0.32c1.3,0,2.36-1.06,2.36-2.36C16.64,29.28,16.6,29.04,16.53,28.81z"/>
		</g>
		<g>
			<path class="st5" d="M36.19,32.78h-5.12l-0.98,2.36h-2.62l4.92-11.04h2.52l4.93,11.04h-2.68L36.19,32.78z M35.39,30.84
				l-1.75-4.23l-1.75,4.23H35.39z"/>
			<path class="st5" d="M40.53,24.11c0-0.77,0.61-1.37,1.53-1.37c0.91,0,1.53,0.57,1.53,1.32c0,0.82-0.61,1.42-1.53,1.42
				C41.14,25.48,40.53,24.88,40.53,24.11z M40.83,26.67h2.46v8.48h-2.46V26.67z"/>
			<path class="st5" d="M50.84,26.54v2.27c-0.21-0.02-0.36-0.03-0.55-0.03c-1.36,0-2.25,0.74-2.25,2.37v4h-2.46v-8.48h2.35v1.12
				C48.52,26.97,49.53,26.54,50.84,26.54z"/>
			<path class="st5" d="M51.59,30.91c0-2.55,1.97-4.37,4.73-4.37c1.78,0,3.18,0.77,3.8,2.16l-1.91,1.03
				c-0.46-0.8-1.14-1.17-1.91-1.17c-1.25,0-2.22,0.87-2.22,2.35c0,1.48,0.98,2.35,2.22,2.35c0.77,0,1.45-0.35,1.91-1.17l1.91,1.04
				c-0.61,1.36-2.02,2.14-3.8,2.14C53.56,35.28,51.59,33.46,51.59,30.91z"/>
			<path class="st5" d="M61.47,23.45h2.46v11.7h-2.46V23.45z"/>
			<path class="st5" d="M65.59,30.91c0-2.55,1.97-4.37,4.67-4.37s4.65,1.81,4.65,4.37c0,2.55-1.95,4.37-4.65,4.37
				S65.59,33.46,65.59,30.91z M72.41,30.91c0-1.47-0.93-2.35-2.16-2.35s-2.18,0.88-2.18,2.35c0,1.47,0.95,2.35,2.18,2.35
				S72.41,32.37,72.41,30.91z"/>
			<path class="st5" d="M85.09,26.67v8.48h-2.33v-1.01c-0.65,0.74-1.59,1.14-2.63,1.14c-2.13,0-3.63-1.2-3.63-3.82v-4.79h2.46v4.43
				c0,1.42,0.63,2.05,1.72,2.05c1.14,0,1.95-0.73,1.95-2.29v-4.19H85.09z"/>
			<path class="st5" d="M96.01,23.45v11.7h-2.35v-0.98c-0.61,0.74-1.51,1.1-2.65,1.1c-2.4,0-4.24-1.7-4.24-4.37
				c0-2.66,1.84-4.37,4.24-4.37c1.04,0,1.92,0.33,2.54,1.03v-4.11H96.01z M93.6,30.91c0-1.47-0.95-2.35-2.16-2.35
				c-1.23,0-2.18,0.88-2.18,2.35c0,1.47,0.95,2.35,2.18,2.35C92.65,33.26,93.6,32.37,93.6,30.91z"/>
			<path class="st5" d="M107.01,31.03c0,2.48-1.75,4.18-4.07,4.18c-1.45,0-2.68-0.71-3.34-1.94v4.93h-0.79V26.92h0.76v1.94
				c0.65-1.26,1.89-2,3.37-2C105.26,26.86,107.01,28.57,107.01,31.03z M106.22,31.03c0-2.07-1.43-3.47-3.33-3.47
				c-1.89,0-3.31,1.4-3.31,3.47s1.42,3.47,3.31,3.47C104.79,34.5,106.22,33.1,106.22,31.03z"/>
			<path class="st5" d="M108.55,31.03c0-2.44,1.75-4.18,4.12-4.18c2.36,0,4.11,1.73,4.11,4.18s-1.75,4.18-4.11,4.18
				C110.3,35.21,108.55,33.48,108.55,31.03z M115.98,31.03c0-2.07-1.42-3.47-3.31-3.47c-1.89,0-3.31,1.4-3.31,3.47
				s1.42,3.47,3.31,3.47C114.56,34.5,115.98,33.1,115.98,31.03z"/>
			<path class="st5" d="M118.01,34.16l0.36-0.63c0.63,0.54,1.75,0.99,2.96,0.99c1.73,0,2.43-0.61,2.43-1.55
				c0-2.4-5.45-0.63-5.45-3.86c0-1.25,1.04-2.25,3.12-2.25c1.04,0,2.18,0.32,2.82,0.8l-0.36,0.63c-0.69-0.5-1.59-0.74-2.48-0.74
				c-1.61,0-2.32,0.66-2.32,1.55c0,2.48,5.45,0.73,5.45,3.86c0,1.34-1.15,2.25-3.25,2.25C119.95,35.21,118.66,34.75,118.01,34.16z"
				/>
		</g>
	</g>
</g>
</svg>
